<?xml version="1.0" encoding="utf-8"?>
<!-- Generator: Adobe Illustrator 16.0.0, SVG Export Plug-In . SVG Version: 6.00 Build 0)  -->
<!DOCTYPE svg PUBLIC "-//W3C//DTD SVG 1.1//EN" "http://www.w3.org/Graphics/SVG/1.1/DTD/svg11.dtd">
<svg version="1.1" id="Layer_1" xmlns="http://www.w3.org/2000/svg" xmlns:xlink="http://www.w3.org/1999/xlink" x="0px" y="0px"
	 width="153px" height="152px" viewBox="0 0 153 152" enable-background="new 0 0 153 152" xml:space="preserve">
<g>
	<rect x="89.77" y="94.244" fill="#1C5F30" width="27.742" height="27.743"/>
	<rect x="128.6" y="108.114" fill="#EE6F20" width="13.872" height="13.872"/>
	<rect x="62.026" y="94.244" fill="#217D3D" width="27.744" height="27.743"/>
	<rect x="34.284" y="94.244" fill="#309043" width="27.743" height="27.743"/>
	<rect x="89.77" y="66.5" fill="#217D3D" width="27.742" height="27.742"/>
	<rect x="62.026" y="66.5" fill="#309043" width="27.744" height="27.742"/>
	
		<rect x="30.134" y="62.922" transform="matrix(0.9484 -0.317 0.317 0.9484 -21.7404 17.447)" fill="#42A147" width="25.221" height="25.221"/>
	<rect x="89.77" y="38.757" fill="#309043" width="27.742" height="27.743"/>
	
		<rect x="56.916" y="35.078" transform="matrix(0.9484 -0.317 0.317 0.9484 -11.5317 24.5002)" fill="#42A147" width="25.22" height="25.22"/>
	
		<rect x="24.022" y="30.031" transform="matrix(0.8934 -0.4492 0.4492 0.8934 -15.2501 20.9983)" fill="#47AA4D" width="25.222" height="25.222"/>
</g>
</svg>
